<svg version="1.1" id="Layer_1" xmlns="http://www.w3.org/2000/svg" xmlns:xlink="http://www.w3.org/1999/xlink" x="0px" y="0px"
	 viewBox="0 0 520 150" style="enable-background:new 0 0 520 150;" xml:space="preserve">
<style type="text/css">
	.st0{fill:#9d9d9d;}
</style>
<g id="XMLID_756_">
	<g id="XMLID_811_">
		<polygon id="XMLID_815_" class="st0" points="22.2,72.6 6.5,72.6 6.5,10.7 10.6,10.7 10.6,68.4 20.1,68.4 50.8,26.7 50.8,72.6 
			46.7,72.6 46.7,39.3 		"/>
		<polygon id="XMLID_814_" class="st0" points="64,72.6 59.8,72.6 59.8,14.8 50.4,14.8 19.8,56.7 19.8,10.7 23.9,10.7 23.9,44.1 
			48.3,10.7 64,10.7 		"/>
	</g>
	<path id="XMLID_807_" class="st0" d="M110.7,52.6c1.5,1.9,2.2,4.2,2.2,7c0,4.1-1.5,7.3-4.6,9.6c-3.1,2.3-7.5,3.4-13.3,3.4H72.3
		V26.4h21.5c5.4,0,9.5,1,12.5,3.1c3,2.1,4.5,5,4.5,8.8c0,2.3-0.6,4.3-1.7,6c-1.1,1.7-2.7,3.1-4.8,4.1
		C107,49.3,109.2,50.7,110.7,52.6z M82.9,45.5h10c2.3,0,4.1-0.5,5.3-1.4c1.2-0.9,1.8-2.3,1.8-4.2c0-1.8-0.6-3.2-1.8-4.2
		c-1.2-1-3-1.4-5.2-1.4h-10V45.5z M102.1,58.7c0-3.8-2.5-5.7-7.5-5.7H82.9v11.7h11.7C99.6,64.7,102.1,62.7,102.1,58.7z"/>
	<path id="XMLID_804_" class="st0" d="M152.6,62.7h-21.4l-4.1,9.9h-10.9l20.6-46.1h10.5l20.6,46.1h-11.2L152.6,62.7z M149.2,54.6
		l-7.3-17.7l-7.3,17.7H149.2z"/>
	<path id="XMLID_802_" class="st0" d="M216.3,26.4v46.1h-10.7V53.7h-21v18.9H174V26.4h10.7v18.2h21V26.4H216.3z"/>
	<path id="XMLID_799_" class="st0" d="M236.9,70.3c-3.8-2.1-6.9-4.9-9-8.5c-2.2-3.6-3.3-7.7-3.3-12.2s1.1-8.6,3.3-12.2
		c2.2-3.6,5.2-6.5,9-8.5c3.8-2.1,8.2-3.1,13-3.1c4.8,0,9.1,1,12.9,3.1c3.8,2.1,6.8,4.9,9,8.5c2.2,3.6,3.3,7.7,3.3,12.2
		s-1.1,8.6-3.3,12.2c-2.2,3.6-5.2,6.5-9,8.5c-3.8,2.1-8.1,3.1-12.9,3.1C245.1,73.4,240.8,72.3,236.9,70.3z M257.3,62.4
		c2.2-1.3,3.9-3,5.2-5.2c1.3-2.2,1.9-4.8,1.9-7.6c0-2.9-0.6-5.4-1.9-7.6c-1.3-2.2-3-4-5.2-5.2c-2.2-1.3-4.7-1.9-7.4-1.9
		c-2.7,0-5.2,0.6-7.4,1.9c-2.2,1.3-3.9,3-5.2,5.2c-1.3,2.2-1.9,4.8-1.9,7.6c0,2.9,0.6,5.4,1.9,7.6c1.3,2.2,3,4,5.2,5.2
		c2.2,1.3,4.7,1.9,7.4,1.9C252.6,64.3,255.1,63.6,257.3,62.4z"/>
	<path id="XMLID_795_" class="st0" d="M321.8,52.6c1.5,1.9,2.2,4.2,2.2,7c0,4.1-1.5,7.3-4.6,9.6c-3.1,2.3-7.5,3.4-13.3,3.4h-22.7
		V26.4h21.5c5.4,0,9.5,1,12.5,3.1c3,2.1,4.5,5,4.5,8.8c0,2.3-0.6,4.3-1.7,6c-1.1,1.7-2.7,3.1-4.8,4.1
		C318.1,49.3,320.3,50.7,321.8,52.6z M294,45.5h10c2.3,0,4.1-0.5,5.3-1.4c1.2-0.9,1.8-2.3,1.8-4.2c0-1.8-0.6-3.2-1.8-4.2
		c-1.2-1-3-1.4-5.2-1.4h-10V45.5z M313.2,58.7c0-3.8-2.5-5.7-7.5-5.7H294v11.7h11.7C310.7,64.7,313.2,62.7,313.2,58.7z"/>
	<path id="XMLID_793_" class="st0" d="M341.5,70.3c-3.8-2-6.8-4.9-9-8.5c-2.2-3.6-3.3-7.7-3.3-12.3s1.1-8.7,3.3-12.3
		c2.2-3.6,5.2-6.5,9-8.5c3.8-2,8.1-3.1,12.8-3.1c4,0,7.6,0.7,10.8,2.1c3.2,1.4,5.9,3.4,8.1,6.1l-6.9,6.3c-3.1-3.6-7-5.4-11.6-5.4
		c-2.9,0-5.4,0.6-7.6,1.9c-2.2,1.3-4,3-5.2,5.2c-1.3,2.2-1.9,4.8-1.9,7.6c0,2.9,0.6,5.4,1.9,7.6c1.3,2.2,3,4,5.2,5.2
		c2.2,1.3,4.8,1.9,7.6,1.9c4.6,0,8.5-1.8,11.6-5.5l6.9,6.3c-2.2,2.7-4.9,4.7-8.2,6.1c-3.3,1.4-6.9,2.1-10.9,2.1
		C349.6,73.4,345.3,72.3,341.5,70.3z"/>
	<path id="XMLID_791_" class="st0" d="M398.2,54h-7.4v18.6h-10.6V26.4h10.6v18.7h7.6l12.1-18.7h11.3l-15.1,22.3l15.6,23.9h-12.1
		L398.2,54z"/>
	<path id="XMLID_788_" class="st0" d="M457.6,62.7h-21.4l-4.1,9.9h-10.9l20.6-46.1h10.5l20.6,46.1h-11.2L457.6,62.7z M454.3,54.6
		l-7.3-17.7l-7.3,17.7H454.3z"/>
	<path id="XMLID_785_" class="st0" d="M513.5,26.4v46.1H503V60.3h-9.8L485,72.6h-11.3l9.6-13.9c-3.1-1.3-5.5-3.2-7.2-5.8
		c-1.7-2.6-2.5-5.7-2.5-9.3c0-3.6,0.8-6.6,2.4-9.2c1.6-2.6,3.9-4.5,6.9-5.9c3-1.4,6.5-2.1,10.5-2.1H513.5z M486.9,37.2
		c-1.6,1.4-2.4,3.5-2.4,6.3c0,2.7,0.8,4.7,2.3,6.2c1.5,1.4,3.8,2.2,6.8,2.2h9.4V35.1h-9.1C490.8,35.1,488.5,35.8,486.9,37.2z"/>
	<path id="XMLID_783_" class="st0" d="M107.9,96.9l5.2-1.6l-3.8,15c-0.5,1.9-0.8,3.4-1,4.5c-0.2,1.1-0.3,1.9-0.3,2.4
		c0,1,0.2,1.9,0.5,2.5c0.4,0.6,0.8,0.9,1.4,0.9c1,0,2.6-1.2,4.8-3.6l0.8,0.7l-0.5,0.5c-0.9,1.1-1.7,2-2.4,2.7
		c-0.7,0.7-1.2,1.3-1.7,1.7c-0.9,0.7-1.7,1.1-2.4,1.1c-1,0-1.8-0.5-2.5-1.5c-0.7-1-1-2.3-1-3.8c0-0.7,0.1-1.8,0.3-3.2
		c0.2-1.4,0.5-2.9,0.8-4.6s0.7-3.6,1.1-5.5c0.4-2,0.8-3.9,1.1-5.8l-14.5,24h-1.5l-1.7-24.8c-1.2,4.4-2.4,8.1-3.5,11.2
		c-1.1,3.1-2.2,5.7-3.2,7.7c-1,2-2.1,3.5-3.1,4.4c-1,0.9-2,1.4-3,1.4c-0.3,0-0.7,0-1.2,0c-0.5,0-0.9-0.1-1.3-0.2l1.3-4.9
		c0.3,0.3,0.8,0.5,1.3,0.6c0.6,0.1,1.1,0.2,1.6,0.2c0.6,0,1.2-0.2,1.7-0.7c0.5-0.4,1-1,1.5-1.8c0.5-0.7,0.9-1.6,1.4-2.6
		c0.4-1,0.8-2,1.2-3.1c0.8-2.6,1.4-4.7,1.7-6.5c0.3-1.8,0.5-3.3,0.5-4.5c0-0.4,0-0.7,0-1.2c0-0.4-0.1-0.9-0.2-1.4l6.6-2l1.3,23
		L107.9,96.9z"/>
	<path id="XMLID_780_" class="st0" d="M145.3,94.7l-4.5,17.6c-0.5,1.9-0.7,3.4-0.7,4.5c0,1,0.2,1.8,0.6,2.5c0.4,0.7,0.9,1.1,1.5,1.1
		c0.9,0,2.5-1.1,4.6-3.4l0.7,0.7l-0.5,0.6c-1.7,2-3,3.3-3.9,4.1c-0.9,0.8-1.7,1.2-2.4,1.2c-1,0-1.9-0.5-2.7-1.6
		c-0.8-1.1-1.1-2.3-1.1-3.7c0-1,0.4-3.4,1.2-7l0.4-1.8c-1.2,2.8-2.8,5.4-4.8,7.9c-3.3,4.2-6.5,6.4-9.6,6.4c-1.8,0-3.3-0.7-4.3-2
		c-1.1-1.3-1.6-3.1-1.6-5.3c0-3,0.9-6.2,2.6-9.5c1.7-3.3,3.9-6,6.4-8.2c2.6-2.1,5-3.2,7.4-3.2c2.5,0,4.4,0.9,5.7,2.8l0.5-1.8
		L145.3,94.7z M139.7,100.9c-0.4-1.2-1-2.2-2-2.9c-0.9-0.7-2-1-3.2-1c-1.4,0-2.9,0.7-4.5,2c-1.6,1.3-3,3.1-4.3,5.4
		c-1,1.8-1.9,3.9-2.6,6.1c-0.7,2.2-1,4-1,5.5c0,1.6,0.3,2.9,0.9,3.9c0.6,0.9,1.5,1.4,2.7,1.4c1.5,0,3-0.7,4.6-2.1
		c1.6-1.4,3.2-3.4,4.8-5.9c1-1.5,1.7-3,2.3-4.4c0.5-1.5,1.2-3.5,1.8-6.2L139.7,100.9z"/>
	<path id="XMLID_778_" class="st0" d="M170.4,97l4.7-2l-3.9,15.3c-0.5,1.9-0.8,3.4-1,4.5c-0.2,1.1-0.3,1.9-0.3,2.4
		c0,1,0.2,1.9,0.5,2.5c0.4,0.6,0.8,0.9,1.4,0.9c1,0,2.6-1.2,4.8-3.6l0.8,0.7l-0.5,0.5c-0.9,1.1-1.7,2-2.4,2.7
		c-0.7,0.7-1.2,1.3-1.7,1.7c-0.9,0.7-1.7,1.1-2.4,1.1c-1,0-1.8-0.5-2.5-1.5c-0.7-1-1-2.3-1-3.8c0-0.8,0.1-1.9,0.3-3.4
		c0.2-1.5,0.5-3.3,0.9-5.4h-11.2l-3,13.1l-3.2,1l5.1-26.7l4.6-2l-3,13h11.1c0.3-1.6,0.6-3.3,0.9-5.1C169.7,101.1,170,99.1,170.4,97z
		"/>
	<path id="XMLID_776_" class="st0" d="M175.8,140.3l2.4-3.2c1.9,2,4,3,6.3,3c2.5,0,4.5-1,6-2.9c1.5-2,2.7-5.2,3.7-9.6l2.2-10
		c-3.5,4.1-6.7,6.2-9.6,6.2c-1.7,0-3-0.5-3.9-1.5c-0.9-1-1.4-2.4-1.4-4.1c0-1.2,0.1-2.4,0.4-3.8l3.3-17.3l4.7-2l-4.7,19.4
		c-0.4,1.6-0.6,2.7-0.6,3.5c0,1.1,0.3,2,1,2.7c0.7,0.7,1.5,1,2.6,1c1.2,0,2.5-0.5,3.9-1.6c1.4-1,3-2.6,4.8-4.7L201,97l4.5-2l-7,28.3
		c-0.8,3.4-1.6,6.1-2.4,8c-0.8,1.9-1.6,3.5-2.6,4.8c-3.1,4-7,6.1-11.5,6.1C179.4,142.2,177.3,141.6,175.8,140.3z"/>
	<path id="XMLID_773_" class="st0" d="M278.7,94.7l-4.5,17.6c-0.5,1.9-0.7,3.4-0.7,4.5c0,1,0.2,1.8,0.6,2.5c0.4,0.7,0.9,1.1,1.5,1.1
		c0.9,0,2.5-1.1,4.6-3.4l0.7,0.7l-0.5,0.6c-1.7,2-3,3.3-3.9,4.1c-0.9,0.8-1.7,1.2-2.4,1.2c-1,0-1.9-0.5-2.7-1.6
		c-0.8-1.1-1.1-2.3-1.1-3.7c0-1,0.4-3.4,1.2-7l0.4-1.8c-1.2,2.8-2.8,5.4-4.8,7.9c-3.3,4.2-6.5,6.4-9.6,6.4c-1.8,0-3.3-0.7-4.3-2
		c-1.1-1.3-1.6-3.1-1.6-5.3c0-3,0.9-6.2,2.6-9.5c1.7-3.3,3.9-6,6.4-8.2c2.6-2.1,5-3.2,7.4-3.2c2.5,0,4.4,0.9,5.7,2.8l0.5-1.8
		L278.7,94.7z M273.1,100.9c-0.4-1.2-1-2.2-2-2.9c-0.9-0.7-2-1-3.2-1c-1.4,0-2.9,0.7-4.5,2c-1.6,1.3-3,3.1-4.3,5.4
		c-1,1.8-1.9,3.9-2.6,6.1c-0.7,2.2-1,4-1,5.5c0,1.6,0.3,2.9,0.9,3.9c0.6,0.9,1.5,1.4,2.7,1.4c1.5,0,3-0.7,4.6-2.1
		c1.6-1.4,3.2-3.4,4.8-5.9c1-1.5,1.7-3,2.3-4.4c0.5-1.5,1.2-3.5,1.8-6.2L273.1,100.9z"/>
	<path id="XMLID_771_" class="st0" d="M289,97l4.6-2l-4.2,17.9c0.8-1.4,1.6-2.8,2.5-4.2c0.9-1.4,1.8-2.6,2.7-3.9
		c0.9-1.2,1.8-2.3,2.7-3.3c0.9-1,1.7-1.9,2.5-2.6c0.7-0.7,1.4-1.2,2-1.7c0.6-0.5,1.2-0.9,1.8-1.2c0.6-0.3,1.3-0.5,2-0.7
		c0.7-0.1,1.6-0.2,2.6-0.3l-0.9,4.5c-0.7-0.3-1.4-0.4-1.9-0.4c-0.5,0-1,0-1.3,0c-0.6,0-1.3,0.2-2,0.5c-0.8,0.3-1.5,0.8-2.3,1.4
		c-0.8,0.6-1.6,1.4-2.3,2.2c-0.8,0.9-1.5,1.8-2.1,2.9c0.5,1.3,1.1,2.7,1.8,4.4c0.7,1.7,1.3,3.3,2.1,4.8c0.7,1.5,1.4,2.8,2.1,3.8
		c0.7,1,1.4,1.6,2,1.6c1.4,0,3.1-1,4.9-2.9l0.4-0.4l0.6,0.7c-3.2,3.9-5.6,5.9-7.1,5.9c-0.5,0-1-0.1-1.5-0.3c-0.5-0.2-0.9-0.5-1.3-1
		c-0.5-0.6-1.1-1.4-1.5-2.4s-1-2-1.5-3.2c-0.5-1.2-1-2.4-1.6-3.8c-0.5-1.3-1.1-2.7-1.8-4.1c-1.2,1.7-2.4,3.7-3.4,5.9
		c-1.1,2.2-1.9,4.8-2.4,7.9l-3.1,0.9L289,97z"/>
	<path id="XMLID_769_" class="st0" d="M331.7,122.7l-3.2,1l3.8-19.6l0.3-1.7c0.2-0.9,0.3-1.7,0.3-2.3c0-1.4-0.6-2.1-1.7-2.1
		c-1.1,0-2.3,0.7-3.9,2.1c-1.5,1.4-3.1,3.5-4.8,6.2c-1.1,1.7-2,3.4-2.8,5c-0.8,1.6-1.5,3.3-2.2,5.1c-0.7,1.8-1.3,3.9-1.9,6.2l-3,1
		l5-26.7l4.6-2l-4.2,17.5c2.2-5,4.6-9.1,7.4-12.3c2.8-3.2,5.3-4.8,7.5-4.8c2.4,0,3.6,1.4,3.6,4.1c0,0.9-0.2,2.6-0.7,5l-1.6,7.2
		c3.1-6,5.7-10.2,7.9-12.6c2.2-2.5,4.3-3.7,6.4-3.7c1.2,0,2.1,0.4,2.8,1.1c0.7,0.7,1,1.7,1,3c0,1.1-0.3,2.9-1,5.5l-1.5,5.9l-0.5,1.9
		c-0.5,2-0.7,3.5-0.7,4.4c0,1,0.2,1.9,0.5,2.5c0.4,0.6,0.8,0.9,1.3,0.9c1,0,2.6-1.2,4.8-3.6l0.7,0.7l-0.4,0.5
		c-1.8,2.2-3.2,3.6-4.1,4.4c-0.9,0.8-1.7,1.1-2.4,1.1c-1,0-1.8-0.5-2.5-1.5c-0.7-1-1-2.3-1-3.8c0-0.9,0.2-2.5,0.6-4.6l1.8-10
		l0.3-1.7c0.2-1,0.3-1.7,0.3-2.3c0-0.6-0.2-1-0.5-1.4c-0.4-0.4-0.8-0.5-1.4-0.5c-0.7,0-1.5,0.3-2.3,0.9c-0.9,0.6-1.8,1.5-2.7,2.7
		c-1,1.2-2,2.8-3.2,4.8c-1.6,2.7-2.9,5.3-3.9,7.6C333.6,116.3,332.7,119.2,331.7,122.7z"/>
	<path id="XMLID_767_" class="st0" d="M354.7,140.3l2.4-3.2c1.9,2,4,3,6.3,3c2.5,0,4.5-1,6-2.9c1.5-2,2.7-5.2,3.7-9.6l2.2-10
		c-3.5,4.1-6.7,6.2-9.6,6.2c-1.7,0-3-0.5-3.9-1.5c-0.9-1-1.4-2.4-1.4-4.1c0-1.2,0.1-2.4,0.4-3.8l3.3-17.3l4.7-2l-4.7,19.4
		c-0.4,1.6-0.6,2.7-0.6,3.5c0,1.1,0.3,2,1,2.7c0.7,0.7,1.5,1,2.6,1c1.2,0,2.5-0.5,3.9-1.6c1.4-1,3-2.6,4.8-4.7L380,97l4.5-2l-7,28.3
		c-0.8,3.4-1.6,6.1-2.4,8c-0.8,1.9-1.6,3.5-2.6,4.8c-3.1,4-7,6.1-11.5,6.1C358.3,142.2,356.2,141.6,354.7,140.3z"/>
	<path id="XMLID_764_" class="st0" d="M384.5,142.3l9.1-45.3l4.6-2l-3.2,13.8c2.4-4.8,4.6-8.2,6.7-10.3c2.1-2.1,4.4-3.2,6.9-3.2
		c1.9,0,3.5,0.7,4.6,2.1c1.1,1.4,1.7,3.4,1.7,5.8c0,2.5-0.5,5.1-1.5,7.7c-1,2.6-2.4,5-4.3,7.2c-3.3,4-7,6-10.9,6
		c-2.5,0-4.6-0.7-6.2-2l-5,20.1H384.5z M392.8,119c1.3,2.6,3.2,3.9,5.7,3.9c3.5,0,6.6-2.9,9.2-8.6c2.2-4.6,3.2-8.5,3.2-11.7
		c0-1.7-0.3-3-1-3.9c-0.6-0.9-1.6-1.4-2.7-1.4c-1.9,0-3.9,1.3-6.1,3.8c-2,2.5-3.7,5.3-5.2,8.4c-0.5,1.2-1.1,2.5-1.5,3.9
		c-0.5,1.4-0.9,2.8-1.3,4.2L392.8,119z"/>
	<path id="XMLID_761_" class="st0" d="M446.1,94.7l-4.5,17.6c-0.5,1.9-0.7,3.4-0.7,4.5c0,1,0.2,1.8,0.6,2.5c0.4,0.7,0.9,1.1,1.5,1.1
		c0.9,0,2.5-1.1,4.6-3.4l0.7,0.7l-0.5,0.6c-1.7,2-3,3.3-3.9,4.1c-0.9,0.8-1.7,1.2-2.4,1.2c-1,0-1.9-0.5-2.7-1.6
		c-0.8-1.1-1.1-2.3-1.1-3.7c0-1,0.4-3.4,1.2-7l0.4-1.8c-1.2,2.8-2.8,5.4-4.8,7.9c-3.3,4.2-6.5,6.4-9.6,6.4c-1.8,0-3.3-0.7-4.3-2
		c-1.1-1.3-1.6-3.1-1.6-5.3c0-3,0.9-6.2,2.6-9.5c1.7-3.3,3.9-6,6.4-8.2c2.6-2.1,5-3.2,7.4-3.2c2.5,0,4.4,0.9,5.7,2.8l0.5-1.8
		L446.1,94.7z M440.5,100.9c-0.4-1.2-1-2.2-2-2.9c-0.9-0.7-2-1-3.2-1c-1.4,0-2.9,0.7-4.5,2c-1.6,1.3-3,3.1-4.3,5.4
		c-1,1.8-1.9,3.9-2.6,6.1c-0.7,2.2-1,4-1,5.5c0,1.6,0.3,2.9,0.9,3.9c0.6,0.9,1.5,1.4,2.7,1.4c1.5,0,3-0.7,4.6-2.1
		c1.6-1.4,3.2-3.4,4.8-5.9c1-1.5,1.7-3,2.3-4.4c0.5-1.5,1.2-3.5,1.8-6.2L440.5,100.9z"/>
	<path id="XMLID_757_" class="st0" d="M241.3,95.4c-1.3,0-2.4,0.2-3.4,0.6c-1,0.4-1.8,0.9-2.6,1.5c-0.7,0.6-1.4,1.4-2,2.2
		c-0.6,0.9-1.2,1.8-1.9,2.7l4.3-18.5l-4,1.8l-2.6,14.1c-0.5-1.4-1.3-2.5-2.4-3.3c-1.1-0.7-2.5-1.1-4.1-1.1c-2.1,0-4,0.6-5.7,1.7
		c-1.7,1.1-3.2,2.6-4.4,4.4c-1.2,1.8-2.1,4-2.8,6.4c-0.7,2.4-1,4.9-1,7.5c0,3,0.6,5.2,1.7,6.7c1.1,1.5,2.6,2.2,4.5,2.2
		c1.2,0,2.2-0.2,3.3-0.6c1-0.4,1.9-0.9,2.8-1.5c0.8-0.6,1.6-1.2,2.2-1.9c0.6-0.7,1.1-1.3,1.6-2l-5.1,24.1h2.6l5-20.1
		c1.6,1.3,3.7,2,6.2,2c2.1,0,4-0.6,5.7-1.8c1.7-1.2,3.2-2.8,4.5-4.7c1.2-2,2.2-4.2,2.9-6.7c0.7-2.5,1-5,1-7.6c0-2.5-0.6-4.5-1.7-5.9
		C244.7,96.1,243.2,95.4,241.3,95.4z M226.6,110c-0.1,0.5-0.3,1.2-0.6,2c-0.2,0.8-0.5,1.7-0.9,2.6c-0.4,0.9-0.8,1.8-1.3,2.7
		c-0.5,0.9-1.1,1.7-1.8,2.5c-0.7,0.7-1.4,1.3-2.2,1.8c-0.8,0.5-1.7,0.7-2.6,0.7c-1.2,0-2.2-0.5-3.1-1.5c-0.9-1-1.3-2.7-1.3-5
		c0-1.2,0.1-2.5,0.3-3.9c0.2-1.4,0.5-2.8,0.8-4.2c0.4-1.4,0.8-2.8,1.4-4.1c0.6-1.3,1.2-2.5,2-3.5c0.8-1,1.6-1.8,2.6-2.4
		c1-0.6,2-0.9,3.2-0.9c1.4,0,2.6,0.6,3.4,1.8c0.8,1.2,1.3,3.1,1.4,5.7L226.6,110z M242.8,111.2c-0.5,2.3-1.2,4.4-2,6.1
		c-0.9,1.8-1.9,3.1-3.1,4.1c-1.2,1-2.5,1.5-3.9,1.5c-0.7,0-1.3-0.1-2-0.2c-0.6-0.2-1.2-0.4-1.7-0.9c-0.5-0.4-0.9-1-1.3-1.6
		c-0.3-0.7-0.6-1.5-0.7-2.5l1.3-6.2c0.2-0.7,0.4-1.6,0.6-2.6c0.3-1,0.6-2,1-3.1c0.4-1,0.8-2.1,1.3-3.1c0.5-1,1.1-1.9,1.8-2.7
		c0.7-0.8,1.5-1.5,2.3-2c0.9-0.5,1.8-0.7,2.9-0.7c1.1,0,2,0.5,2.9,1.5c0.8,1,1.2,2.6,1.2,4.8C243.5,106.3,243.3,108.9,242.8,111.2z"
		/>
</g>
</svg>
